<?xml version="1.0" standalone="no"?>
<!DOCTYPE svg PUBLIC "-//W3C//DTD SVG 20010904//EN"
 "http://www.w3.org/TR/2001/REC-SVG-20010904/DTD/svg10.dtd">
<svg version="1.0" xmlns="http://www.w3.org/2000/svg"
 width="700.000000pt" height="700.000000pt" viewBox="0 0 700.000000 700.000000"
 preserveAspectRatio="xMidYMid meet">
<metadata>
Created by potrace 1.14, written by Peter Selinger 2001-2017
</metadata>
<g transform="translate(0.000000,700.000000) scale(0.100000,-0.100000)"
fill="#000000" stroke="none">
<path d="M3305 6796 c-27 -12 -67 -41 -87 -64 -60 -66 -68 -111 -68 -373 l0
-228 88 -3 87 -3 3 -87 3 -88 -266 0 -265 0 0 -85 0 -85 263 -2 262 -3 0 -175
0 -175 -410 -5 c-443 -6 -424 -4 -546 -65 -73 -37 -169 -137 -208 -216 -53
-108 -61 -171 -61 -486 l0 -283 -258 0 -258 0 -49 -50 -50 -50 -402 402 -403
403 -252 -253 -253 -252 403 -403 402 -402 -50 -50 -50 -49 0 -433 0 -433
-352 0 -351 0 6 -117 c12 -219 57 -402 147 -588 69 -142 143 -249 350 -500
156 -190 280 -353 280 -368 0 -2 -55 -7 -122 -10 -96 -4 -152 -13 -253 -40
-71 -19 -191 -51 -265 -70 l-135 -35 -3 -90 -3 -90 63 14 c35 7 155 38 266 68
336 91 390 93 658 20 590 -159 573 -159 1189 6 143 38 172 43 270 43 98 0 128
-5 270 -43 343 -91 419 -109 510 -120 160 -17 237 -4 700 120 143 38 172 43
270 43 98 0 128 -5 270 -43 611 -163 614 -163 1134 -20 248 68 329 78 451 57
52 -9 178 -39 280 -67 102 -28 213 -57 248 -64 l63 -14 -3 90 -3 90 -130 34
c-343 90 -401 104 -422 104 -13 0 -23 6 -23 14 0 23 63 135 202 360 146 235
242 424 288 565 45 137 80 343 87 509 l6 142 -526 0 -527 0 0 258 0 258 -50
49 -50 50 402 402 403 403 -253 252 -252 253 -395 -395 -395 -395 -42 42 -43
43 -185 2 -185 3 -5 495 c-5 480 -6 497 -27 553 -62 164 -198 288 -364 332
-42 12 -138 15 -441 15 l-388 0 0 180 0 180 260 0 260 0 0 85 0 85 -260 0
-260 0 0 90 0 90 85 0 85 0 0 238 c0 132 -5 253 -10 274 -16 57 -69 119 -129
150 -70 37 -153 38 -226 4z m166 -175 l29 -29 0 -146 0 -146 -90 0 -90 0 0
130 c0 175 19 219 93 220 18 0 39 -10 58 -29z m870 -1402 c79 -37 133 -90 171
-167 l33 -67 3 -482 3 -483 -188 0 -188 0 -34 66 c-62 120 -162 210 -288 257
-58 22 -64 22 -818 27 l-760 5 -3 250 c-3 274 6 362 43 433 41 81 114 144 198
174 49 16 107 17 912 15 l860 -2 56 -26z m-3318 -737 l337 -337 -128 -128
-127 -127 -340 340 -340 340 125 125 c69 69 127 125 130 125 3 0 157 -152 343
-338z m5077 -137 l125 -125 -337 -337 -337 -337 -125 129 -124 130 331 333
c183 182 334 332 337 332 3 0 61 -56 130 -125z m-2313 -163 c59 -21 126 -70
166 -121 l28 -36 -45 -7 c-163 -23 -309 -132 -380 -282 -52 -109 -56 -150 -56
-558 l0 -378 -1225 0 -1225 0 0 397 0 398 302 302 303 303 1040 0 c972 -1
1043 -2 1092 -18z m1522 -634 l290 -303 1 -222 0 -223 -966 0 -965 0 3 388 c3
374 4 389 26 443 25 64 85 137 138 170 76 47 88 48 651 48 l531 1 291 -302z
m1327 -1000 c-21 -269 -113 -512 -311 -825 l-90 -142 -2657 -1 -2657 0 -123
146 c-210 249 -307 401 -372 582 -27 75 -66 251 -66 296 l0 26 3141 0 3142 0
-7 -82z m-558 -1236 l-40 -89 -67 -12 c-36 -6 -165 -38 -286 -71 -289 -77
-323 -84 -435 -84 -112 0 -145 7 -435 84 -292 78 -323 84 -440 84 -117 0 -148
-6 -440 -84 -290 -77 -323 -84 -435 -84 -112 0 -145 7 -435 84 -292 78 -323
84 -440 84 -117 0 -148 -6 -440 -84 -290 -77 -323 -84 -435 -84 -108 0 -148 8
-387 71 -164 44 -172 48 -184 76 -7 16 -34 66 -61 110 -26 44 -48 82 -48 84 0
1 1136 3 2524 3 l2524 0 -40 -88z"/>
<path d="M1725 3646 c-95 -45 -145 -126 -145 -236 0 -76 21 -129 71 -178 105
-106 265 -107 369 -2 129 128 90 346 -75 421 -59 27 -157 25 -220 -5z"/>
<path d="M2775 3646 c-95 -45 -145 -126 -145 -236 0 -76 21 -129 71 -178 105
-106 265 -107 369 -2 129 128 90 346 -75 421 -59 27 -157 25 -220 -5z"/>
<path d="M4376 3484 c-32 -10 -64 -32 -97 -64 -128 -128 -90 -344 76 -421 89
-41 230 -14 297 57 66 71 89 203 49 289 -54 119 -197 180 -325 139z"/>
<path d="M5250 2015 l0 -85 350 0 350 0 0 85 0 85 -350 0 -350 0 0 -85z"/>
</g>
</svg>
